# xmcd
#
# Track frame offsets:
#	150
#	24472
#	51350
#	75935
#	100322
#	125798
#	151274
#	178990
#	206707
#	226734
#	254028
#	281322
#	303432
#	325541
#
# Disc length: 4603 seconds
#
# Revision: 1
# Processed by: cddbd v1.5.2PL0 Copyright (c) Steve Scherf et al.
# Submitted via: audiograbber 1.83.01
#
DISCID=ba11f90e
DTITLE=Various Artist - Funkymix 139 2010
DYEAR=2010
DGENRE=Hip Hop
TTITLE0=Nelly - Just a dream 90 bpm
TTITLE1=Drake - Fancy 88 bpm
TTITLE2=Wacka Flocka Flame - No Hands 132 bpm
TTITLE3=Usher - DJ got us falling in love 120 bpm
TTITLE4=Gucci Mane - Gucci Time (clean) 84 bpm
TTITLE5=Gucci Mane - Gucci Time (dirty) 84 bpm
TTITLE6=Lil Wayne - Right above it (clean) 76 bpm
TTITLE7=Lil Wayne - Richr above it (dirty) 76 bpm
TTITLE8=Nelly - Trippin in da club 91 bpm
TTITLE9=Kid Cudi - Erase me (clean) 93 bpm
TTITLE10=Kid Cudi - Erase me (dirty) 93 bpm
TTITLE11=Cee-Lo Green - F*ck you 128 bpm
TTITLE12=Cee-Lo Green - Forget you 128 bpm
TTITLE13=Cee-Lo Green - Forget you (ext clean) 128 bpm
EXTD=
EXTT0=
EXTT1=
EXTT2=
EXTT3=
EXTT4=
EXTT5=
EXTT6=
EXTT7=
EXTT8=
EXTT9=
EXTT10=
EXTT11=
EXTT12=
EXTT13=
PLAYORDER=
